<svg xmlns="http://www.w3.org/2000/svg" viewBox="0 0 1920 1280" preserveAspectRatio="xMidYMid slice">

<defs>
  <radialGradient id="glow" cx="50%" cy="100%" r="80%">
    <stop offset="0%" stop-color="#ED7A02" stop-opacity="0.55"/>
    <stop offset="35%" stop-color="#9F3C07" stop-opacity="0.30"/>
    <stop offset="70%" stop-color="#0F1B23" stop-opacity="0.85"/>
    <stop offset="100%" stop-color="#0A1118" stop-opacity="1"/>
  </radialGradient>
  <linearGradient id="topfade" x1="0%" y1="0%" x2="0%" y2="100%">
    <stop offset="0%" stop-color="#0A1118" stop-opacity="1"/>
    <stop offset="55%" stop-color="#0A1118" stop-opacity="0"/>
  </linearGradient>
</defs>

<rect width="1920" height="1280" fill="#0F1B23"/>
<rect width="1920" height="1280" fill="url(#glow)"/>
<rect width="1920" height="1280" fill="url(#topfade)"/>
<g stroke="#ED7A02" stroke-width="0.7" stroke-opacity="0.55" fill="none">
<line x1="312.7" y1="425.1" x2="264.2" y2="422.5" stroke-opacity="0.47"/>
<line x1="312.7" y1="425.1" x2="347.7" y2="372.0" stroke-opacity="0.43"/>
<line x1="312.7" y1="425.1" x2="317.5" y2="493.0" stroke-opacity="0.41"/>
<line x1="312.7" y1="425.1" x2="210.0" y2="407.5" stroke-opacity="0.32"/>
<line x1="88.1" y1="660.2" x2="164.5" y2="640.1" stroke-opacity="0.38"/>
<line x1="88.1" y1="660.2" x2="22.6" y2="627.7" stroke-opacity="0.40"/>
<line x1="88.1" y1="660.2" x2="109.0" y2="703.3" stroke-opacity="0.47"/>
<line x1="88.1" y1="660.2" x2="40.0" y2="684.9" stroke-opacity="0.45"/>
<line x1="-62.1" y1="-111.3" x2="-32.0" y2="-160.3" stroke-opacity="0.44"/>
<line x1="-62.1" y1="-111.3" x2="23.5" y2="-184.7" stroke-opacity="0.29"/>
<line x1="-62.1" y1="-111.3" x2="-142.9" y2="-109.9" stroke-opacity="0.38"/>
<line x1="-62.1" y1="-111.3" x2="-35.4" y2="-60.5" stroke-opacity="0.44"/>
<line x1="-62.1" y1="-111.3" x2="107.8" y2="-193.5" stroke-opacity="0.11"/>
<line x1="318.3" y1="644.4" x2="296.9" y2="662.6" stroke-opacity="0.52"/>
<line x1="318.3" y1="644.4" x2="303.7" y2="686.2" stroke-opacity="0.48"/>
<line x1="318.3" y1="644.4" x2="248.8" y2="639.7" stroke-opacity="0.41"/>
<line x1="264.2" y1="422.5" x2="347.7" y2="372.0" stroke-opacity="0.33"/>
<line x1="264.2" y1="422.5" x2="317.5" y2="493.0" stroke-opacity="0.36"/>
<line x1="264.2" y1="422.5" x2="210.0" y2="407.5" stroke-opacity="0.45"/>
<line x1="-89.5" y1="340.6" x2="-187.8" y2="215.2" stroke-opacity="0.17"/>
<line x1="-89.5" y1="340.6" x2="-67.2" y2="200.2" stroke-opacity="0.21"/>
<line x1="-89.5" y1="340.6" x2="-126.4" y2="231.4" stroke-opacity="0.29"/>
<line x1="76.5" y1="442.7" x2="140.0" y2="454.3" stroke-opacity="0.42"/>
<line x1="76.5" y1="442.7" x2="69.8" y2="518.5" stroke-opacity="0.39"/>
<line x1="76.5" y1="442.7" x2="42.2" y2="537.7" stroke-opacity="0.32"/>
<line x1="-187.8" y1="215.2" x2="-67.2" y2="200.2" stroke-opacity="0.27"/>
<line x1="-187.8" y1="215.2" x2="-126.4" y2="231.4" stroke-opacity="0.43"/>
<line x1="-187.8" y1="215.2" x2="-202.7" y2="89.8" stroke-opacity="0.26"/>
<line x1="-67.2" y1="200.2" x2="-126.4" y2="231.4" stroke-opacity="0.42"/>
<line x1="-67.2" y1="200.2" x2="42.7" y2="103.9" stroke-opacity="0.20"/>
<line x1="347.7" y1="372.0" x2="291.0" y2="276.1" stroke-opacity="0.30"/>
<line x1="347.7" y1="372.0" x2="317.5" y2="493.0" stroke-opacity="0.26"/>
<line x1="-32.0" y1="-160.3" x2="23.5" y2="-184.7" stroke-opacity="0.43"/>
<line x1="-32.0" y1="-160.3" x2="-35.4" y2="-60.5" stroke-opacity="0.33"/>
<line x1="-32.0" y1="-160.3" x2="107.8" y2="-193.5" stroke-opacity="0.21"/>
<line x1="164.5" y1="640.1" x2="109.0" y2="703.3" stroke-opacity="0.37"/>
<line x1="164.5" y1="640.1" x2="248.8" y2="639.7" stroke-opacity="0.37"/>
<line x1="-102.1" y1="852.3" x2="-108.5" y2="709.2" stroke-opacity="0.21"/>
<line x1="-102.1" y1="852.3" x2="-58.4" y2="865.9" stroke-opacity="0.48"/>
<line x1="-102.1" y1="852.3" x2="-105.0" y2="877.8" stroke-opacity="0.53"/>
<line x1="-102.1" y1="852.3" x2="-117.1" y2="868.7" stroke-opacity="0.54"/>
<line x1="-102.1" y1="852.3" x2="-122.6" y2="886.4" stroke-opacity="0.49"/>
<line x1="140.0" y1="454.3" x2="69.8" y2="518.5" stroke-opacity="0.34"/>
<line x1="140.0" y1="454.3" x2="210.0" y2="407.5" stroke-opacity="0.37"/>
<line x1="-174.2" y1="15.0" x2="-154.3" y2="-20.3" stroke-opacity="0.49"/>
<line x1="-174.2" y1="15.0" x2="-202.7" y2="89.8" stroke-opacity="0.38"/>
<line x1="-174.2" y1="15.0" x2="-139.4" y2="44.2" stroke-opacity="0.48"/>
<line x1="23.5" y1="-184.7" x2="107.8" y2="-193.5" stroke-opacity="0.37"/>
<line x1="291.0" y1="276.1" x2="212.4" y2="229.8" stroke-opacity="0.35"/>
<line x1="291.0" y1="276.1" x2="197.6" y2="253.2" stroke-opacity="0.34"/>
<line x1="-154.3" y1="-20.3" x2="-202.7" y2="89.8" stroke-opacity="0.27"/>
<line x1="-154.3" y1="-20.3" x2="-139.4" y2="44.2" stroke-opacity="0.42"/>
<line x1="-154.3" y1="-20.3" x2="-142.9" y2="-109.9" stroke-opacity="0.35"/>
<line x1="-202.7" y1="89.8" x2="-139.4" y2="44.2" stroke-opacity="0.39"/>
<line x1="22.6" y1="627.7" x2="42.2" y2="537.7" stroke-opacity="0.35"/>
<line x1="22.6" y1="627.7" x2="-34.0" y2="516.6" stroke-opacity="0.26"/>
<line x1="22.6" y1="627.7" x2="40.0" y2="684.9" stroke-opacity="0.44"/>
<line x1="22.6" y1="627.7" x2="-145.3" y2="646.2" stroke-opacity="0.14"/>
<line x1="69.8" y1="518.5" x2="42.2" y2="537.7" stroke-opacity="0.51"/>
<line x1="69.8" y1="518.5" x2="-34.0" y2="516.6" stroke-opacity="0.32"/>
<line x1="42.2" y1="537.7" x2="-34.0" y2="516.6" stroke-opacity="0.38"/>
<line x1="-108.5" y1="709.2" x2="40.0" y2="684.9" stroke-opacity="0.19"/>
<line x1="-108.5" y1="709.2" x2="-145.3" y2="646.2" stroke-opacity="0.40"/>
<line x1="109.0" y1="703.3" x2="40.0" y2="684.9" stroke-opacity="0.41"/>
<line x1="212.4" y1="229.8" x2="210.0" y2="407.5" stroke-opacity="0.12"/>
<line x1="212.4" y1="229.8" x2="197.6" y2="253.2" stroke-opacity="0.52"/>
<line x1="-139.4" y1="44.2" x2="42.7" y2="103.9" stroke-opacity="0.11"/>
<line x1="42.7" y1="103.9" x2="-35.4" y2="-60.5" stroke-opacity="0.11"/>
<line x1="-34.0" y1="516.6" x2="-145.3" y2="646.2" stroke-opacity="0.13"/>
<line x1="-142.9" y1="-109.9" x2="-35.4" y2="-60.5" stroke-opacity="0.28"/>
<line x1="210.0" y1="407.5" x2="197.6" y2="253.2" stroke-opacity="0.18"/>
<line x1="40.0" y1="684.9" x2="21.7" y2="790.9" stroke-opacity="0.31"/>
<line x1="-58.4" y1="865.9" x2="-105.0" y2="877.8" stroke-opacity="0.47"/>
<line x1="-58.4" y1="865.9" x2="28.5" y2="798.0" stroke-opacity="0.30"/>
<line x1="-58.4" y1="865.9" x2="-117.1" y2="868.7" stroke-opacity="0.44"/>
<line x1="-138.9" y1="1042.9" x2="-159.2" y2="927.3" stroke-opacity="0.28"/>
<line x1="-138.9" y1="1042.9" x2="-100.0" y2="1108.9" stroke-opacity="0.39"/>
<line x1="-138.9" y1="1042.9" x2="-122.6" y2="886.4" stroke-opacity="0.17"/>
<line x1="123.1" y1="1145.5" x2="103.2" y2="1233.8" stroke-opacity="0.35"/>
<line x1="123.1" y1="1145.5" x2="153.9" y2="1185.7" stroke-opacity="0.46"/>
<line x1="123.1" y1="1145.5" x2="205.9" y2="1192.3" stroke-opacity="0.34"/>
<line x1="123.1" y1="1145.5" x2="245.3" y2="1193.0" stroke-opacity="0.24"/>
<line x1="103.2" y1="1233.8" x2="153.9" y2="1185.7" stroke-opacity="0.41"/>
<line x1="103.2" y1="1233.8" x2="98.0" y2="1304.4" stroke-opacity="0.41"/>
<line x1="103.2" y1="1233.8" x2="104.0" y2="1306.8" stroke-opacity="0.40"/>
<line x1="291.5" y1="776.0" x2="296.9" y2="662.6" stroke-opacity="0.29"/>
<line x1="291.5" y1="776.0" x2="300.7" y2="876.8" stroke-opacity="0.32"/>
<line x1="291.5" y1="776.0" x2="303.7" y2="686.2" stroke-opacity="0.35"/>
<line x1="153.9" y1="1185.7" x2="98.0" y2="1304.4" stroke-opacity="0.24"/>
<line x1="153.9" y1="1185.7" x2="205.9" y2="1192.3" stroke-opacity="0.46"/>
<line x1="153.9" y1="1185.7" x2="245.3" y2="1193.0" stroke-opacity="0.35"/>
<line x1="153.9" y1="1185.7" x2="104.0" y2="1306.8" stroke-opacity="0.24"/>
<line x1="-159.2" y1="927.3" x2="-100.0" y2="1108.9" stroke-opacity="0.11"/>
<line x1="-159.2" y1="927.3" x2="-154.8" y2="881.0" stroke-opacity="0.47"/>
<line x1="-159.2" y1="927.3" x2="-117.1" y2="868.7" stroke-opacity="0.40"/>
<line x1="-159.2" y1="927.3" x2="-122.6" y2="886.4" stroke-opacity="0.45"/>
<line x1="200.8" y1="983.4" x2="300.7" y2="876.8" stroke-opacity="0.20"/>
<line x1="200.8" y1="983.4" x2="117.0" y2="958.1" stroke-opacity="0.36"/>
<line x1="200.8" y1="983.4" x2="155.3" y2="927.1" stroke-opacity="0.40"/>
<line x1="200.8" y1="983.4" x2="265.1" y2="1025.0" stroke-opacity="0.39"/>
<line x1="55.5" y1="859.7" x2="114.5" y2="910.0" stroke-opacity="0.39"/>
<line x1="55.5" y1="859.7" x2="28.5" y2="798.0" stroke-opacity="0.42"/>
<line x1="55.5" y1="859.7" x2="21.7" y2="790.9" stroke-opacity="0.39"/>
<line x1="-100.0" y1="1108.9" x2="34.2" y2="1000.6" stroke-opacity="0.13"/>
<line x1="68.1" y1="1014.9" x2="114.5" y2="910.0" stroke-opacity="0.29"/>
<line x1="68.1" y1="1014.9" x2="34.2" y2="1000.6" stroke-opacity="0.50"/>
<line x1="68.1" y1="1014.9" x2="117.0" y2="958.1" stroke-opacity="0.40"/>
<line x1="-154.8" y1="881.0" x2="-117.1" y2="868.7" stroke-opacity="0.49"/>
<line x1="-154.8" y1="881.0" x2="-122.6" y2="886.4" stroke-opacity="0.51"/>
<line x1="296.9" y1="662.6" x2="303.7" y2="686.2" stroke-opacity="0.53"/>
<line x1="296.9" y1="662.6" x2="248.8" y2="639.7" stroke-opacity="0.45"/>
<line x1="114.5" y1="910.0" x2="34.2" y2="1000.6" stroke-opacity="0.27"/>
<line x1="114.5" y1="910.0" x2="117.0" y2="958.1" stroke-opacity="0.47"/>
<line x1="114.5" y1="910.0" x2="155.3" y2="927.1" stroke-opacity="0.48"/>
<line x1="-105.0" y1="877.8" x2="-117.1" y2="868.7" stroke-opacity="0.56"/>
<line x1="-105.0" y1="877.8" x2="-122.6" y2="886.4" stroke-opacity="0.55"/>
<line x1="28.5" y1="798.0" x2="21.7" y2="790.9" stroke-opacity="0.57"/>
<line x1="34.2" y1="1000.6" x2="117.0" y2="958.1" stroke-opacity="0.35"/>
<line x1="300.7" y1="876.8" x2="265.1" y2="1025.0" stroke-opacity="0.18"/>
<line x1="98.0" y1="1304.4" x2="104.0" y2="1306.8" stroke-opacity="0.58"/>
<line x1="205.9" y1="1192.3" x2="245.3" y2="1193.0" stroke-opacity="0.49"/>
<line x1="303.7" y1="686.2" x2="248.8" y2="639.7" stroke-opacity="0.40"/>
<line x1="245.3" y1="1193.0" x2="428.5" y2="1128.6" stroke-opacity="0.11"/>
<line x1="-117.1" y1="868.7" x2="-122.6" y2="886.4" stroke-opacity="0.55"/>
<line x1="117.0" y1="958.1" x2="155.3" y2="927.1" stroke-opacity="0.47"/>
<line x1="155.3" y1="927.1" x2="265.1" y2="1025.0" stroke-opacity="0.20"/>
<line x1="265.1" y1="1025.0" x2="428.5" y2="1128.6" stroke-opacity="0.11"/>
<line x1="2052.5" y1="1014.2" x2="1926.0" y2="996.4" stroke-opacity="0.25"/>
<line x1="2052.5" y1="1014.2" x2="1935.1" y2="1025.0" stroke-opacity="0.28"/>
<line x1="2052.5" y1="1014.2" x2="2040.8" y2="1211.8" stroke-opacity="0.11"/>
<line x1="2052.5" y1="1014.2" x2="2143.9" y2="1192.1" stroke-opacity="0.11"/>
<line x1="1770.0" y1="1107.2" x2="1682.1" y2="1079.6" stroke-opacity="0.35"/>
<line x1="1770.0" y1="1107.2" x2="1721.4" y2="1014.2" stroke-opacity="0.31"/>
<line x1="1770.0" y1="1107.2" x2="1796.5" y2="1045.3" stroke-opacity="0.42"/>
<line x1="1844.2" y1="1026.5" x2="1926.0" y2="996.4" stroke-opacity="0.36"/>
<line x1="1844.2" y1="1026.5" x2="1796.5" y2="1045.3" stroke-opacity="0.46"/>
<line x1="1844.2" y1="1026.5" x2="1935.1" y2="1025.0" stroke-opacity="0.35"/>
<line x1="1844.2" y1="1026.5" x2="1782.9" y2="980.7" stroke-opacity="0.39"/>
<line x1="1985.3" y1="1276.9" x2="2040.8" y2="1211.8" stroke-opacity="0.37"/>
<line x1="1985.3" y1="1276.9" x2="1918.9" y2="1334.2" stroke-opacity="0.36"/>
<line x1="1985.3" y1="1276.9" x2="2046.4" y2="1395.0" stroke-opacity="0.24"/>
<line x1="1985.3" y1="1276.9" x2="1907.1" y2="1326.4" stroke-opacity="0.35"/>
<line x1="1985.3" y1="1276.9" x2="2143.9" y2="1192.1" stroke-opacity="0.11"/>
<line x1="1682.6" y1="1040.6" x2="1682.1" y2="1079.6" stroke-opacity="0.49"/>
<line x1="1682.6" y1="1040.6" x2="1721.4" y2="1014.2" stroke-opacity="0.47"/>
<line x1="1682.6" y1="1040.6" x2="1630.6" y2="983.1" stroke-opacity="0.39"/>
<line x1="1682.6" y1="1040.6" x2="1651.4" y2="1108.6" stroke-opacity="0.40"/>
<line x1="1926.0" y1="996.4" x2="1935.1" y2="1025.0" stroke-opacity="0.52"/>
<line x1="1926.0" y1="996.4" x2="1875.6" y2="912.0" stroke-opacity="0.33"/>
<line x1="1877.1" y1="1276.9" x2="1861.4" y2="1232.0" stroke-opacity="0.47"/>
<line x1="1877.1" y1="1276.9" x2="1914.9" y2="1195.8" stroke-opacity="0.36"/>
<line x1="1877.1" y1="1276.9" x2="1918.9" y2="1334.2" stroke-opacity="0.41"/>
<line x1="1877.1" y1="1276.9" x2="1907.1" y2="1326.4" stroke-opacity="0.44"/>
<line x1="1877.1" y1="1276.9" x2="1754.0" y2="1325.6" stroke-opacity="0.24"/>
<line x1="1817.8" y1="896.0" x2="1699.1" y2="874.2" stroke-opacity="0.27"/>
<line x1="1817.8" y1="896.0" x2="1782.9" y2="980.7" stroke-opacity="0.35"/>
<line x1="1817.8" y1="896.0" x2="1875.6" y2="912.0" stroke-opacity="0.44"/>
<line x1="1799.3" y1="1216.3" x2="1853.2" y2="1196.2" stroke-opacity="0.44"/>
<line x1="1799.3" y1="1216.3" x2="1861.4" y2="1232.0" stroke-opacity="0.43"/>
<line x1="1799.3" y1="1216.3" x2="1754.0" y2="1325.6" stroke-opacity="0.28"/>
<line x1="1799.3" y1="1216.3" x2="1783.9" y2="1268.7" stroke-opacity="0.45"/>
<line x1="1699.1" y1="874.2" x2="1782.9" y2="980.7" stroke-opacity="0.23"/>
<line x1="1699.1" y1="874.2" x2="1630.6" y2="983.1" stroke-opacity="0.25"/>
<line x1="1682.1" y1="1079.6" x2="1721.4" y2="1014.2" stroke-opacity="0.39"/>
<line x1="1682.1" y1="1079.6" x2="1630.6" y2="983.1" stroke-opacity="0.30"/>
<line x1="1682.1" y1="1079.6" x2="1555.2" y2="1233.7" stroke-opacity="0.11"/>
<line x1="1682.1" y1="1079.6" x2="1536.1" y2="1178.1" stroke-opacity="0.12"/>
<line x1="1682.1" y1="1079.6" x2="1651.4" y2="1108.6" stroke-opacity="0.48"/>
<line x1="1853.2" y1="1196.2" x2="1861.4" y2="1232.0" stroke-opacity="0.50"/>
<line x1="1853.2" y1="1196.2" x2="1914.9" y2="1195.8" stroke-opacity="0.43"/>
<line x1="1721.4" y1="1014.2" x2="1782.9" y2="980.7" stroke-opacity="0.41"/>
<line x1="1721.4" y1="1014.2" x2="1630.6" y2="983.1" stroke-opacity="0.34"/>
<line x1="1721.4" y1="1014.2" x2="1651.4" y2="1108.6" stroke-opacity="0.28"/>
<line x1="1861.4" y1="1232.0" x2="1914.9" y2="1195.8" stroke-opacity="0.42"/>
<line x1="1861.4" y1="1232.0" x2="1783.9" y2="1268.7" stroke-opacity="0.37"/>
<line x1="1796.5" y1="1045.3" x2="1782.9" y2="980.7" stroke-opacity="0.42"/>
<line x1="2040.8" y1="1211.8" x2="1914.9" y2="1195.8" stroke-opacity="0.25"/>
<line x1="2040.8" y1="1211.8" x2="2143.9" y2="1192.1" stroke-opacity="0.31"/>
<line x1="1782.9" y1="980.7" x2="1875.6" y2="912.0" stroke-opacity="0.29"/>
<line x1="1918.9" y1="1334.2" x2="2046.4" y2="1395.0" stroke-opacity="0.21"/>
<line x1="1918.9" y1="1334.2" x2="1907.1" y2="1326.4" stroke-opacity="0.56"/>
<line x1="580.2" y1="1306.1" x2="506.2" y2="1387.4" stroke-opacity="0.30"/>
<line x1="580.2" y1="1306.1" x2="404.1" y2="1307.7" stroke-opacity="0.12"/>
<line x1="428.5" y1="1128.6" x2="404.1" y2="1307.7" stroke-opacity="0.11"/>
<line x1="2046.4" y1="1395.0" x2="1907.1" y2="1326.4" stroke-opacity="0.18"/>
<line x1="506.2" y1="1387.4" x2="404.1" y2="1307.7" stroke-opacity="0.25"/>
<line x1="970.5" y1="1465.6" x2="804.3" y2="1407.8" stroke-opacity="0.12"/>
<line x1="970.5" y1="1465.6" x2="1171.5" y2="1415.8" stroke-opacity="0.11"/>
<line x1="1555.2" y1="1233.7" x2="1536.1" y2="1178.1" stroke-opacity="0.44"/>
<line x1="1555.2" y1="1233.7" x2="1651.4" y2="1108.6" stroke-opacity="0.17"/>
<line x1="1555.2" y1="1233.7" x2="1581.5" y2="1439.4" stroke-opacity="0.11"/>
<line x1="1536.1" y1="1178.1" x2="1651.4" y2="1108.6" stroke-opacity="0.23"/>
<line x1="1581.5" y1="1439.4" x2="1754.0" y2="1325.6" stroke-opacity="0.11"/>
<line x1="1754.0" y1="1325.6" x2="1783.9" y2="1268.7" stroke-opacity="0.42"/>
</g>
<g fill="#FBA64D">
<circle cx="312.7" cy="425.1" r="1.9" fill-opacity="0.85"/>
<circle cx="88.1" cy="660.2" r="1.8" fill-opacity="0.85"/>
<circle cx="-62.1" cy="-111.3" r="2.5" fill-opacity="0.85"/>
<circle cx="318.3" cy="644.4" r="2.6" fill-opacity="0.85"/>
<circle cx="264.2" cy="422.5" r="2.0" fill-opacity="0.85"/>
<circle cx="-89.5" cy="340.6" r="2.2" fill-opacity="0.85"/>
<circle cx="76.5" cy="442.7" r="1.5" fill-opacity="0.85"/>
<circle cx="-187.8" cy="215.2" r="1.7" fill-opacity="0.85"/>
<circle cx="-67.2" cy="200.2" r="2.6" fill-opacity="0.85"/>
<circle cx="347.7" cy="372.0" r="2.1" fill-opacity="0.85"/>
<circle cx="-32.0" cy="-160.3" r="2.0" fill-opacity="0.85"/>
<circle cx="164.5" cy="640.1" r="2.3" fill-opacity="0.85"/>
<circle cx="-102.1" cy="852.3" r="1.4" fill-opacity="0.85"/>
<circle cx="140.0" cy="454.3" r="2.1" fill-opacity="0.85"/>
<circle cx="-174.2" cy="15.0" r="2.0" fill-opacity="0.85"/>
<circle cx="23.5" cy="-184.7" r="2.4" fill-opacity="0.85"/>
<circle cx="291.0" cy="276.1" r="1.5" fill-opacity="0.85"/>
<circle cx="-126.4" cy="231.4" r="2.5" fill-opacity="0.85"/>
<circle cx="-154.3" cy="-20.3" r="1.4" fill-opacity="0.85"/>
<circle cx="-202.7" cy="89.8" r="1.5" fill-opacity="0.85"/>
<circle cx="317.5" cy="493.0" r="2.1" fill-opacity="0.85"/>
<circle cx="22.6" cy="627.7" r="2.2" fill-opacity="0.85"/>
<circle cx="69.8" cy="518.5" r="1.6" fill-opacity="0.85"/>
<circle cx="42.2" cy="537.7" r="1.5" fill-opacity="0.85"/>
<circle cx="-108.5" cy="709.2" r="2.5" fill-opacity="0.85"/>
<circle cx="109.0" cy="703.3" r="1.6" fill-opacity="0.85"/>
<circle cx="212.4" cy="229.8" r="2.1" fill-opacity="0.85"/>
<circle cx="-139.4" cy="44.2" r="2.1" fill-opacity="0.85"/>
<circle cx="42.7" cy="103.9" r="1.8" fill-opacity="0.85"/>
<circle cx="-34.0" cy="516.6" r="2.1" fill-opacity="0.85"/>
<circle cx="-142.9" cy="-109.9" r="2.0" fill-opacity="0.85"/>
<circle cx="-35.4" cy="-60.5" r="2.5" fill-opacity="0.85"/>
<circle cx="107.8" cy="-193.5" r="1.6" fill-opacity="0.85"/>
<circle cx="210.0" cy="407.5" r="2.2" fill-opacity="0.85"/>
<circle cx="40.0" cy="684.9" r="1.6" fill-opacity="0.85"/>
<circle cx="197.6" cy="253.2" r="1.8" fill-opacity="0.85"/>
<circle cx="-58.4" cy="865.9" r="2.2" fill-opacity="0.85"/>
<circle cx="-145.3" cy="646.2" r="1.7" fill-opacity="0.85"/>
<circle cx="-138.9" cy="1042.9" r="1.7" fill-opacity="0.85"/>
<circle cx="123.1" cy="1145.5" r="2.3" fill-opacity="0.85"/>
<circle cx="103.2" cy="1233.8" r="1.4" fill-opacity="0.85"/>
<circle cx="291.5" cy="776.0" r="1.9" fill-opacity="0.85"/>
<circle cx="153.9" cy="1185.7" r="2.6" fill-opacity="0.85"/>
<circle cx="-159.2" cy="927.3" r="2.6" fill-opacity="0.85"/>
<circle cx="200.8" cy="983.4" r="1.4" fill-opacity="0.85"/>
<circle cx="55.5" cy="859.7" r="1.6" fill-opacity="0.85"/>
<circle cx="-100.0" cy="1108.9" r="1.6" fill-opacity="0.85"/>
<circle cx="68.1" cy="1014.9" r="2.5" fill-opacity="0.85"/>
<circle cx="-154.8" cy="881.0" r="2.4" fill-opacity="0.85"/>
<circle cx="296.9" cy="662.6" r="2.4" fill-opacity="0.85"/>
<circle cx="114.5" cy="910.0" r="1.8" fill-opacity="0.85"/>
<circle cx="-105.0" cy="877.8" r="1.5" fill-opacity="0.85"/>
<circle cx="28.5" cy="798.0" r="2.4" fill-opacity="0.85"/>
<circle cx="34.2" cy="1000.6" r="2.2" fill-opacity="0.85"/>
<circle cx="300.7" cy="876.8" r="2.1" fill-opacity="0.85"/>
<circle cx="98.0" cy="1304.4" r="2.6" fill-opacity="0.85"/>
<circle cx="205.9" cy="1192.3" r="2.2" fill-opacity="0.85"/>
<circle cx="303.7" cy="686.2" r="1.3" fill-opacity="0.85"/>
<circle cx="21.7" cy="790.9" r="2.4" fill-opacity="0.85"/>
<circle cx="245.3" cy="1193.0" r="1.7" fill-opacity="0.85"/>
<circle cx="-117.1" cy="868.7" r="2.2" fill-opacity="0.85"/>
<circle cx="-122.6" cy="886.4" r="2.5" fill-opacity="0.85"/>
<circle cx="117.0" cy="958.1" r="1.5" fill-opacity="0.85"/>
<circle cx="155.3" cy="927.1" r="1.5" fill-opacity="0.85"/>
<circle cx="248.8" cy="639.7" r="1.4" fill-opacity="0.85"/>
<circle cx="265.1" cy="1025.0" r="2.0" fill-opacity="0.85"/>
<circle cx="2052.5" cy="1014.2" r="1.7" fill-opacity="0.85"/>
<circle cx="1770.0" cy="1107.2" r="2.1" fill-opacity="0.85"/>
<circle cx="1844.2" cy="1026.5" r="2.2" fill-opacity="0.85"/>
<circle cx="1985.3" cy="1276.9" r="1.6" fill-opacity="0.85"/>
<circle cx="1682.6" cy="1040.6" r="2.1" fill-opacity="0.85"/>
<circle cx="1926.0" cy="996.4" r="1.6" fill-opacity="0.85"/>
<circle cx="1877.1" cy="1276.9" r="1.9" fill-opacity="0.85"/>
<circle cx="1817.8" cy="896.0" r="2.5" fill-opacity="0.85"/>
<circle cx="1799.3" cy="1216.3" r="2.4" fill-opacity="0.85"/>
<circle cx="1699.1" cy="874.2" r="1.4" fill-opacity="0.85"/>
<circle cx="1682.1" cy="1079.6" r="1.9" fill-opacity="0.85"/>
<circle cx="1853.2" cy="1196.2" r="1.7" fill-opacity="0.85"/>
<circle cx="1721.4" cy="1014.2" r="1.3" fill-opacity="0.85"/>
<circle cx="1861.4" cy="1232.0" r="2.3" fill-opacity="0.85"/>
<circle cx="1796.5" cy="1045.3" r="2.1" fill-opacity="0.85"/>
<circle cx="1935.1" cy="1025.0" r="1.6" fill-opacity="0.85"/>
<circle cx="2040.8" cy="1211.8" r="2.3" fill-opacity="0.85"/>
<circle cx="1782.9" cy="980.7" r="2.0" fill-opacity="0.85"/>
<circle cx="1914.9" cy="1195.8" r="1.9" fill-opacity="0.85"/>
<circle cx="1630.6" cy="983.1" r="1.3" fill-opacity="0.85"/>
<circle cx="1875.6" cy="912.0" r="1.4" fill-opacity="0.85"/>
<circle cx="1918.9" cy="1334.2" r="2.4" fill-opacity="0.85"/>
<circle cx="580.2" cy="1306.1" r="2.5" fill-opacity="0.85"/>
<circle cx="104.0" cy="1306.8" r="2.0" fill-opacity="0.85"/>
<circle cx="428.5" cy="1128.6" r="2.4" fill-opacity="0.85"/>
<circle cx="2046.4" cy="1395.0" r="2.1" fill-opacity="0.85"/>
<circle cx="506.2" cy="1387.4" r="1.5" fill-opacity="0.85"/>
<circle cx="970.5" cy="1465.6" r="1.5" fill-opacity="0.85"/>
<circle cx="404.1" cy="1307.7" r="1.7" fill-opacity="0.85"/>
<circle cx="804.3" cy="1407.8" r="2.5" fill-opacity="0.85"/>
<circle cx="1555.2" cy="1233.7" r="2.3" fill-opacity="0.85"/>
<circle cx="1536.1" cy="1178.1" r="2.4" fill-opacity="0.85"/>
<circle cx="1907.1" cy="1326.4" r="2.5" fill-opacity="0.85"/>
<circle cx="1651.4" cy="1108.6" r="1.6" fill-opacity="0.85"/>
<circle cx="2143.9" cy="1192.1" r="1.6" fill-opacity="0.85"/>
<circle cx="1581.5" cy="1439.4" r="1.4" fill-opacity="0.85"/>
<circle cx="1171.5" cy="1415.8" r="2.3" fill-opacity="0.85"/>
<circle cx="1754.0" cy="1325.6" r="2.4" fill-opacity="0.85"/>
<circle cx="1783.9" cy="1268.7" r="1.8" fill-opacity="0.85"/>
<circle cx="1107.0" cy="1179.4" r="2.1" fill-opacity="0.85"/>
<circle cx="-202.7" cy="89.8" r="5.5" fill="#ED7A02" fill-opacity="0.18"/>
<circle cx="-142.9" cy="-109.9" r="5.5" fill="#ED7A02" fill-opacity="0.18"/>
<circle cx="317.5" cy="493.0" r="5.5" fill="#ED7A02" fill-opacity="0.18"/>
<circle cx="1171.5" cy="1415.8" r="5.5" fill="#ED7A02" fill-opacity="0.18"/>
<circle cx="1754.0" cy="1325.6" r="5.5" fill="#ED7A02" fill-opacity="0.18"/>
<circle cx="69.8" cy="518.5" r="5.5" fill="#ED7A02" fill-opacity="0.18"/>
<circle cx="28.5" cy="798.0" r="5.5" fill="#ED7A02" fill-opacity="0.18"/>
<circle cx="318.3" cy="644.4" r="5.5" fill="#ED7A02" fill-opacity="0.18"/>
<circle cx="404.1" cy="1307.7" r="5.5" fill="#ED7A02" fill-opacity="0.18"/>
<circle cx="153.9" cy="1185.7" r="5.5" fill="#ED7A02" fill-opacity="0.18"/>
<circle cx="2143.9" cy="1192.1" r="5.5" fill="#ED7A02" fill-opacity="0.18"/>
<circle cx="1630.6" cy="983.1" r="5.5" fill="#ED7A02" fill-opacity="0.18"/>
<circle cx="-35.4" cy="-60.5" r="5.5" fill="#ED7A02" fill-opacity="0.18"/>
<circle cx="40.0" cy="684.9" r="5.5" fill="#ED7A02" fill-opacity="0.18"/>
</g>
</svg>